<svg xmlns="http://www.w3.org/2000/svg" width="1em" height="1em" fill="none" viewBox="0 0 24 24"><path fill="currentColor" fill-rule="evenodd" d="M8.237 9.762c.41 0 .744.326.744.728v2.993a.736.736 0 0 1-.744.728.736.736 0 0 1-.744-.728v-.806h-3.75A.736.736 0 0 1 3 11.948c0-.402.333-.728.744-.728h3.749v-.73c0-.402.333-.728.744-.728m2.19 2.186c0-.402.332-.728.743-.728h8.728c.411 0 .744.326.744.728a.736.736 0 0 1-.744.729H11.17a.736.736 0 0 1-.744-.729Zm1.75 3.602c.412 0 .745.326.745.729v2.993a.736.736 0 0 1-.744.728.736.736 0 0 1-.744-.728v-.807H4.101a.736.736 0 0 1-.743-.728c0-.402.333-.728.743-.728h7.333v-.73c0-.403.333-.729.744-.729ZM21 17.733a.736.736 0 0 1-.74.732l-5.132.038a.736.736 0 0 1-.748-.723.736.736 0 0 1 .739-.733l5.132-.038a.736.736 0 0 1 .749.724" clip-rule="evenodd"/><path fill="currentColor" d="M14.927 4.728A.736.736 0 0 0 14.183 4a.736.736 0 0 0-.744.728v.73H3.744a.736.736 0 0 0-.744.73c0 .402.333.728.744.728h9.695v.807c0 .402.333.728.744.728.41 0 .744-.326.744-.728zm4.979 2.187a.736.736 0 0 0 .736-.735.736.736 0 0 0-.75-.721l-2.812.038a.736.736 0 0 0-.737.735c.004.402.34.725.751.72z"/></svg>