<svg xmlns="http://www.w3.org/2000/svg" width="1em" height="1em" fill="none" viewBox="0 0 24 24"><path stroke="currentColor" stroke-linecap="round" stroke-linejoin="round" stroke-width="1.5" d="M11.1 3c-3.65.007-5.56.096-6.782 1.318C3 5.636 3 7.757 3 12c0 4.242 0 6.364 1.318 7.682S7.758 21 12 21s6.364 0 7.683-1.318c1.22-1.221 1.31-3.133 1.317-6.782"/><path fill="currentColor" d="M21.07 4.032a.75.75 0 0 0-1.056-1.064zm-6.598 4.436a.75.75 0 0 0 1.056 1.064zm5.557-5.24-.131.738.13-.739Zm-4.03-.978A.75.75 0 0 0 16 3.75zM20.25 8a.75.75 0 0 0 1.5 0zm.523-4.028.739-.13zm-.76-1.004-5.541 5.5 1.056 1.064 5.542-5.5zm.146-.48c-.7-.124-1.758-.181-2.601-.21a54 54 0 0 0-1.55-.028H16v1.5h.029l.41.003c.274.004.652.01 1.069.025.85.028 1.807.084 2.39.188l.261-1.477ZM21 8h.75v-.125l-.004-.334c-.003-.28-.01-.67-.025-1.099-.028-.843-.085-1.9-.21-2.6l-1.477.26c.104.583.16 1.54.188 2.39a52 52 0 0 1 .028 1.479V8zm-1.102-4.034c.05.009.078.027.093.043a.17.17 0 0 1 .043.093l1.478-.26a1.65 1.65 0 0 0-1.353-1.353z"/></svg>