<svg xmlns="http://www.w3.org/2000/svg" width="1em" height="1em" fill="none" viewBox="0 0 24 24"><path stroke="currentColor" stroke-width="1.5" d="M12 19.5c-1.332.622-3.083 1-5 1-1.066 0-2.08-.117-3-.327-1.582-.363-2-1.293-2-2.787V6.614c0-.985 1.04-1.661 2-1.441.92.21 1.934.327 3 .327 1.917 0 3.668-.378 5-1s3.083-1 5-1c1.066 0 2.08.117 3 .327 1.582.363 2 1.293 2 2.787v10.772c0 .985-1.04 1.661-2 1.441-.92-.21-1.934-.327-3-.327-1.917 0-3.668.378-5 1Z"/><path stroke="currentColor" stroke-width="1.5" d="M14.5 12a2.5 2.5 0 1 1-5 0 2.5 2.5 0 0 1 5 0Z"/><path stroke="currentColor" stroke-linecap="round" stroke-linejoin="round" stroke-width="2" d="M5.5 13v.009m13-2.017v.01"/></svg>