<svg xmlns="http://www.w3.org/2000/svg" width="1em" height="1em" fill="none" viewBox="0 0 24 24"><path stroke="currentColor" stroke-linecap="round" stroke-linejoin="round" stroke-width="1.5" d="M10.5 22h-1c-3.3 0-4.95 0-5.975-1.025S2.5 18.3 2.5 15v-5c0-3.3 0-4.95 1.025-5.975S6.2 3 9.5 3h3c3.3 0 4.95 0 5.975 1.025S19.5 6.7 19.5 10v1"/><path fill="currentColor" d="m14.848 21.856-.157-.734zm-1.204-1.204.734.157zm.877-2.54-.53-.53zm2.867 2.867-.53-.53zm3.908-5.502.65-.375zm-.6 2.195.53.53zm.6-.674.65.375zm-1.273-2.794.375-.65zm-2.195.6.53.53zm.674-.6-.375-.65zm1.664 2.937-3.308 3.308 1.06 1.06 3.309-3.307-1.061-1.06Zm-5.115 1.501 3.308-3.308-1.06-1.06-3.309 3.307zm-.36 2.48c-.176.038-.316.068-.436.09a2 2 0 0 1-.255.037c-.056.003-.052-.003-.018.006a.4.4 0 0 1 .166.097l-1.06 1.06c.323.324.728.352 1.007.334.265-.017.589-.088.91-.157zm-1.78-.627c-.069.321-.14.645-.157.91-.018.28.01.684.334 1.007l1.06-1.06a.4.4 0 0 1 .097.165c.01.035.003.039.006-.017.004-.054.014-.133.037-.255.022-.12.052-.26.09-.436zm7.255-5.16c.367.367.442.451.48.517l1.3-.75c-.162-.28-.42-.53-.72-.829zm1.06 2.867c.3-.3.558-.549.72-.829l-1.3-.75c-.038.066-.113.15-.48.518zm-.58-2.35a.77.77 0 0 1 0 .771l1.3.75a2.27 2.27 0 0 0 0-2.27l-1.3.75Zm.58-1.579c-.299-.299-.548-.557-.828-.719l-.75 1.3c.066.038.15.113.518.48l1.06-1.06Zm-2.867 1.061c.367-.367.452-.442.518-.48l-.75-1.3c-.28.162-.53.42-.829.72l1.06 1.06Zm2.039-1.78a2.27 2.27 0 0 0-2.271 0l.75 1.3a.77.77 0 0 1 .77 0zm-3.54 6.895c-.196.195-.463.322-.843.419-.19.049-.393.086-.619.125-.217.038-.466.078-.705.13l.313 1.466c.202-.043.41-.077.648-.118.23-.04.483-.085.735-.15.504-.129 1.066-.346 1.532-.811zm-2.48.36c.05-.24.091-.488.129-.705.039-.226.077-.43.125-.62.097-.38.223-.646.419-.842l-1.06-1.06c-.466.465-.683 1.027-.812 1.531-.065.252-.11.506-.15.735-.041.239-.075.446-.118.648z"/><path stroke="currentColor" stroke-linecap="round" stroke-linejoin="round" stroke-width="1.5" d="M16 2v2m-5-2v2M6 2v2"/><path stroke="currentColor" stroke-linecap="round" stroke-width="1.5" d="M7 15h4m-4-5h8"/></svg>