<svg xmlns="http://www.w3.org/2000/svg" width="1em" height="1em" fill="none" viewBox="0 0 24 24"><path fill="currentColor" fill-rule="evenodd" d="M9.932 2.125h.136c1.306 0 2.383 0 3.235.116.894.121 1.684.387 2.317 1.026.633.64.895 1.439 1.015 2.344.115.861.115 1.95.115 3.27v3.994h.984c.235 0 .523-.002.784.068a2 2 0 0 1 1.414 1.414c.07.261.069.549.068.784v1.234a.5.5 0 0 0 1 0v-6.289c0-.66-.01-.786-.043-.895-.033-.11-.095-.22-.46-.769l-.774-1.16A.87.87 0 0 0 19 6.875a1 1 0 1 1 0-2c.959 0 1.855.48 2.387 1.277l.773 1.16.056.085c.279.416.525.785.655 1.214.13.43.13.873.129 1.374v6.39a2.5 2.5 0 0 1-5 0v-1.167c0-.164 0-.253-.003-.319v-.01h-.011a8 8 0 0 0-.32-.004h-.916v5H18a1 1 0 1 1 0 2H2a1 1 0 1 1 0-2h1.25V8.881c0-1.32 0-2.409.114-3.27.12-.905.383-1.704 1.016-2.344.632-.64 1.422-.905 2.317-1.026.852-.116 1.93-.116 3.235-.116m4.793 3.745c.082.611.095 1.525.097 2.654 0 .283 0 .424-.087.512-.088.088-.23.088-.512.088H5.78c-.283 0-.425 0-.513-.088s-.088-.23-.087-.512c.002-1.129.016-2.043.097-2.654.091-.689.253-1.008.467-1.225s.53-.38 1.211-.472c.709-.097 1.655-.099 3.046-.099s2.337.002 3.046.099c.68.092.996.255 1.21.472.215.217.377.536.468 1.225" clip-rule="evenodd"/></svg>