<svg xmlns="http://www.w3.org/2000/svg" width="1em" height="1em" fill="none" viewBox="0 0 24 24"><path fill="currentColor" fill-rule="evenodd" d="M11.583.75c1.951 0 3.488 0 4.688.152 1.23.156 2.22.484 3.003 1.224.79.747 1.145 1.699 1.313 2.88.163 1.141.163 2.6.163 4.435v.524c0 .523 0 .785-.134.874s-.407-.026-.955-.255A4.3 4.3 0 0 0 18 10.25c-2.265 0-4.25 1.79-4.25 4.179 0 .958.32 1.82.85 2.51.292.381.439.572.413.705s-.223.247-.616.477a6.9 6.9 0 0 0-2.068 1.847c-.329.442-.473.956-.518 1.682-.018.292-.027.437-.114.519-.087.081-.225.081-.503.081h-.777c-1.951 0-3.488 0-4.688-.152-1.23-.156-2.22-.484-3.003-1.224-.79-.747-1.145-1.699-1.313-2.88-.163-1.141-.163-2.6-.163-4.435V9.441c0-1.836 0-3.294.163-4.436.168-1.18.522-2.132 1.313-2.879C3.51 1.386 4.5 1.058 5.729.902 6.929.75 8.466.75 10.417.75zM7 5.5a1 1 0 0 0 0 2h8a1 1 0 1 0 0-2zm0 5a1 1 0 1 0 0 2h4a1 1 0 1 0 0-2z" clip-rule="evenodd"/><path fill="currentColor" d="M15.25 14.429c0-1.505 1.257-2.679 2.75-2.679s2.75 1.174 2.75 2.679-1.257 2.678-2.75 2.678-2.75-1.173-2.75-2.678m-1.717 6.434c2.145-2.886 6.737-3.063 8.947.01.189.263.27.568.27.856 0 .84-.681 1.521-1.521 1.521h-6.462a1.517 1.517 0 0 1-1.517-1.517c0-.293.085-.605.283-.87"/></svg>