<svg xmlns="http://www.w3.org/2000/svg" width="1em" height="1em" fill="none" viewBox="0 0 24 24"><path fill="currentColor" fill-rule="evenodd" d="M17 2.75c-2.008 0-3.87.394-5.317 1.07-1.218.569-2.857.93-4.683.93a12.7 12.7 0 0 1-2.832-.309c-1.327-.304-2.918.605-2.918 2.173v10.772c0 .835.133 1.622.567 2.262.448.663 1.14 1.055 2.016 1.255.977.224 2.047.347 3.167.347 2.009 0 3.87-.395 5.318-1.07 1.217-.57 2.857-.93 4.682-.93 1.012 0 1.97.11 2.833.308 1.326.304 2.917-.605 2.917-2.172V6.614c0-.797-.107-1.58-.528-2.227-.44-.675-1.137-1.081-2.054-1.291A14.3 14.3 0 0 0 17 2.75M12 15a3 3 0 1 0 0-6 3 3 0 0 0 0 6m-6.5-3a1 1 0 0 1 1 1v.009a1 1 0 1 1-2 0v-.01a1 1 0 0 1 1-1Zm14-1.008a1 1 0 1 0-2 0V11a1 1 0 1 0 2 0v-.01Z" clip-rule="evenodd"/></svg>