<svg xmlns="http://www.w3.org/2000/svg" width="1em" height="1em" fill="none" viewBox="0 0 24 24"><path fill="currentColor" fill-rule="evenodd" d="M2.25 6.5v10.662c0 1.12.817 1.865 1.823 2.469 1.019.61 2.728 1.333 4.621 2.133 1.42.6 2.334.986 3.306.986s1.887-.387 3.306-.986c1.893-.8 3.602-1.522 4.62-2.133 1.007-.604 1.824-1.349 1.824-2.47V6.502a.74.74 0 0 0-.188-.497L18.27 7.603l-2.922 1.414C13.48 9.92 12.757 10.25 12 10.25c-.758 0-1.48-.33-3.347-1.233L5.73 7.603l-3.293-1.6a.75.75 0 0 0-.188.497Zm4.086 4.83a.75.75 0 0 0-.671 1.341l2 1a.75.75 0 1 0 .67-1.342l-2-1Z" clip-rule="evenodd"/><path fill="currentColor" fill-rule="evenodd" d="M12 1.25c-1.172 0-2.244.509-3.81 1.251L5.08 3.976c-.725.343-1.364.646-1.814.943-.45.298-1.015.786-1.015 1.582 0 .795.565 1.284 1.015 1.581.45.298 1.089.6 1.814.943L8.19 10.5c1.565.742 2.636 1.25 3.809 1.25 1.172 0 2.245-.508 3.81-1.25l3.111-1.474c.725-.344 1.364-.646 1.814-.944s1.015-.786 1.015-1.581c0-.796-.565-1.284-1.015-1.582-.45-.297-1.089-.6-1.814-.943L15.81 2.5c-1.564-.742-2.636-1.25-3.809-1.25ZM8.843 4.316C10.685 3.442 11.33 3.16 12 3.16c.613 0 1.206.235 2.715.944L7.069 7.848 5.994 7.34c-.81-.384-1.318-.627-1.637-.837.319-.21.827-.454 1.637-.838l2.849-1.35Zm.442 4.583 7.646-3.743 1.075.509c.81.384 1.318.627 1.637.838-.319.21-.826.453-1.637.837l-2.848 1.35C13.315 9.56 12.67 9.843 12 9.843c-.613 0-1.206-.236-2.715-.945Z" clip-rule="evenodd"/></svg>